HIERARCHY
ROOT bvh1amy
{
	OFFSET 8.0 26.7 -59.5
	CHANNELS 0
	JOINT sm-T-A6
	{
		OFFSET -0.130 -6.764 -9.552
		CHANNELS 6 Xposition Yposition Zposition Xrotation Yrotation Zrotation
		End Site
		{
			OFFSET -1.694 -1.974 -7.450
		}
	}
	JOINT sm-H-A14
	{
		OFFSET -1.837 -15.373 -19.446
		CHANNELS 6 Xposition Yposition Zposition Xrotation Yrotation Zrotation
		End Site
		{
			OFFSET -1.459 -2.911 9.598
		}
	}
	JOINT sm-T-A24
	{
		OFFSET -1.085 -20.719 -4.430
		CHANNELS 6 Xposition Yposition Zposition Xrotation Yrotation Zrotation
		End Site
		{
			OFFSET 1.539 1.901 6.787
		}
	}
	JOINT sm-T-A32
	{
		OFFSET 0.249 -14.877 5.706
		CHANNELS 6 Xposition Yposition Zposition Xrotation Yrotation Zrotation
		End Site
		{
			OFFSET -5.977 6.349 -8.570
		}
	}
	JOINT sm-S-A40
	{
		OFFSET -11.130 -5.391 -10.928
		CHANNELS 6 Xposition Yposition Zposition Xrotation Yrotation Zrotation
		End Site
		{
			OFFSET 2.216 4.362 -7.594
		}
	}
	JOINT sm-S-A50
	{
		OFFSET -10.809 1.061 -14.487
		CHANNELS 6 Xposition Yposition Zposition Xrotation Yrotation Zrotation
		End Site
		{
			OFFSET -9.242 -5.067 0.213
		}
	}
	JOINT sm-G-A59
	{
		OFFSET -15.113 -9.089 -16.842
		CHANNELS 6 Xposition Yposition Zposition Xrotation Yrotation Zrotation
		End Site
		{
			OFFSET 4.453 -3.388 1.312
		}
	}
	JOINT sm-H-A67
	{
		OFFSET -15.113 -16.329 -12.343
		CHANNELS 6 Xposition Yposition Zposition Xrotation Yrotation Zrotation
		End Site
		{
			OFFSET 5.338 -3.250 13.361
		}
	}
	JOINT sm-T-A80
	{
		OFFSET -7.784 -17.277 3.965
		CHANNELS 6 Xposition Yposition Zposition Xrotation Yrotation Zrotation
		End Site
		{
			OFFSET -3.170 13.381 -7.705
		}
	}
	JOINT sm-B-A92
	{
		OFFSET -16.797 6.521 -15.834
		CHANNELS 6 Xposition Yposition Zposition Xrotation Yrotation Zrotation
		End Site
		{
			OFFSET -7.405 2.221 -9.159
		}
	}
	JOINT sm-S-A110
	{
		OFFSET -28.277 -4.792 -16.673
		CHANNELS 6 Xposition Yposition Zposition Xrotation Yrotation Zrotation
		End Site
		{
			OFFSET 1.269 8.971 2.509
		}
	}
	JOINT sm-G-A120
	{
		OFFSET -24.437 13.267 -13.768
		CHANNELS 6 Xposition Yposition Zposition Xrotation Yrotation Zrotation
		End Site
		{
			OFFSET 5.714 6.463 0.719
		}
	}
	JOINT sm-T-A128
	{
		OFFSET -18.563 17.467 -18.724
		CHANNELS 6 Xposition Yposition Zposition Xrotation Yrotation Zrotation
		End Site
		{
			OFFSET -6.843 2.070 6.073
		}
	}
	JOINT sm-S-A136
	{
		OFFSET -19.218 18.040 -6.022
		CHANNELS 6 Xposition Yposition Zposition Xrotation Yrotation Zrotation
		End Site
		{
			OFFSET 9.036 -3.395 -3.561
		}
	}
	JOINT sm-S-A144
	{
		OFFSET -11.825 11.955 -16.536
		CHANNELS 6 Xposition Yposition Zposition Xrotation Yrotation Zrotation
		End Site
		{
			OFFSET -10.497 0.087 10.561
		}
	}
	JOINT sm-H-A154
	{
		OFFSET -27.776 7.930 -5.384
		CHANNELS 6 Xposition Yposition Zposition Xrotation Yrotation Zrotation
		End Site
		{
			OFFSET 7.533 -17.461 3.400
		}
	}
	JOINT sm-T-A170
	{
		OFFSET -18.141 -12.135 -3.122
		CHANNELS 6 Xposition Yposition Zposition Xrotation Yrotation Zrotation
		End Site
		{
			OFFSET 7.098 10.560 3.047
		}
	}
	JOINT sm-H-A186
	{
		OFFSET -16.794 11.052 3.306
		CHANNELS 6 Xposition Yposition Zposition Xrotation Yrotation Zrotation
		End Site
		{
			OFFSET -4.720 -10.924 1.825
		}
	}
	JOINT sm-B-A204
	{
		OFFSET -2.698 9.428 -1.193
		CHANNELS 6 Xposition Yposition Zposition Xrotation Yrotation Zrotation
		End Site
		{
			OFFSET 12.370 9.122 2.038
		}
	}
	JOINT sm-T-A213
	{
		OFFSET 16.538 19.602 -1.522
		CHANNELS 6 Xposition Yposition Zposition Xrotation Yrotation Zrotation
		End Site
		{
			OFFSET -6.177 -3.461 8.842
		}
	}
	JOINT sm-H-A222
	{
		OFFSET 2.572 16.393 7.446
		CHANNELS 6 Xposition Yposition Zposition Xrotation Yrotation Zrotation
		End Site
		{
			OFFSET -16.464 -7.439 2.701
		}
	}
	JOINT sm-T-A237
	{
		OFFSET -12.784 2.355 12.825
		CHANNELS 6 Xposition Yposition Zposition Xrotation Yrotation Zrotation
		End Site
		{
			OFFSET 8.283 1.099 -7.609
		}
	}
	JOINT sm-H-A246
	{
		OFFSET 4.908 7.360 4.149
		CHANNELS 6 Xposition Yposition Zposition Xrotation Yrotation Zrotation
		End Site
		{
			OFFSET 10.091 -0.511 -2.438
		}
	}
	JOINT sm-G-A260
	{
		OFFSET 16.951 8.293 9.490
		CHANNELS 6 Xposition Yposition Zposition Xrotation Yrotation Zrotation
		End Site
		{
			OFFSET -5.898 5.681 6.026
		}
	}
	JOINT sm-S-A268
	{
		OFFSET 9.794 9.247 15.174
		CHANNELS 6 Xposition Yposition Zposition Xrotation Yrotation Zrotation
		End Site
		{
			OFFSET -6.677 -2.748 -2.925
		}
	}
	JOINT sm-T-A276
	{
		OFFSET -0.703 4.688 14.422
		CHANNELS 6 Xposition Yposition Zposition Xrotation Yrotation Zrotation
		End Site
		{
			OFFSET 0.974 -3.721 -7.464
		}
	}
	JOINT sm-T-A286
	{
		OFFSET 3.347 -0.011 -6.501
		CHANNELS 6 Xposition Yposition Zposition Xrotation Yrotation Zrotation
		End Site
		{
			OFFSET 2.997 -0.102 -5.408
		}
	}
	JOINT sm-G-A295
	{
		OFFSET 8.340 4.872 -8.801
		CHANNELS 6 Xposition Yposition Zposition Xrotation Yrotation Zrotation
		End Site
		{
			OFFSET 8.917 -6.256 5.096
		}
	}
	JOINT sm-H-A304
	{
		OFFSET 15.089 -4.139 1.738
		CHANNELS 6 Xposition Yposition Zposition Xrotation Yrotation Zrotation
		End Site
		{
			OFFSET -6.727 -0.761 7.897
		}
	}
	JOINT sm-S-A314
	{
		OFFSET 3.322 -1.914 11.847
		CHANNELS 6 Xposition Yposition Zposition Xrotation Yrotation Zrotation
		End Site
		{
			OFFSET -0.014 -4.490 -11.635
		}
	}
	JOINT sm-H-A331
	{
		OFFSET 12.362 -15.215 1.458
		CHANNELS 6 Xposition Yposition Zposition Xrotation Yrotation Zrotation
		End Site
		{
			OFFSET -6.506 1.878 13.098
		}
	}
	JOINT sm-E-A350
	{
		OFFSET 5.845 -0.767 19.738
		CHANNELS 6 Xposition Yposition Zposition Xrotation Yrotation Zrotation
		End Site
		{
			OFFSET 14.700 7.191 -5.246
		}
	}
	JOINT sm-T-A359
	{
		OFFSET 22.444 4.397 10.308
		CHANNELS 6 Xposition Yposition Zposition Xrotation Yrotation Zrotation
		End Site
		{
			OFFSET -9.566 -6.376 8.136
		}
	}
	JOINT sm-T-A367
	{
		OFFSET 10.750 -6.722 21.572
		CHANNELS 6 Xposition Yposition Zposition Xrotation Yrotation Zrotation
		End Site
		{
			OFFSET 7.503 3.724 -9.659
		}
	}
	JOINT sm-S-A378
	{
		OFFSET 28.715 -3.154 15.417
		CHANNELS 6 Xposition Yposition Zposition Xrotation Yrotation Zrotation
		End Site
		{
			OFFSET -6.238 -1.135 7.164
		}
	}
	JOINT sm-S-A386
	{
		OFFSET 20.295 -12.001 23.430
		CHANNELS 6 Xposition Yposition Zposition Xrotation Yrotation Zrotation
		End Site
		{
			OFFSET -1.443 -0.176 -14.001
		}
	}
	JOINT sm-T-A395
	{
		OFFSET 20.949 -6.377 6.821
		CHANNELS 6 Xposition Yposition Zposition Xrotation Yrotation Zrotation
		End Site
		{
			OFFSET -5.073 -4.985 12.665
		}
	}
}
MOTION
Frames: 5
Frame Time: 0.01400
-0.23084 -6.57122 -9.65035 -0.685 0.316 2.455 -1.87841 -15.16702 -19.71256 -0.780 0.716 -1.902 -1.13797 -20.69135 -4.64359 -1.271 -0.195 -1.655 0.20367 -14.91781 5.59767 0.214 -0.325 0.461 -11.33867 -5.30891 -11.01641 -0.906 -0.990 0.817 -11.05695 1.08570 -14.54039 0.411 0.539 0.135 -15.25445 -8.92596 -17.03442 -0.895 0.005 -0.873 -15.16910 -16.30196 -12.67558 -0.846 0.164 -0.687 -7.85949 -17.34021 3.78592 -0.405 -1.228 0.589 -17.21535 6.56801 -15.80969 1.180 -1.888 2.083 -28.58156 -4.70094 -16.61448 -0.793 -1.580 0.065 -24.46186 13.25610 -13.74792 -1.840 -3.164 1.226 -18.59396 17.49521 -18.68763 2.477 -2.022 -0.622 -19.20811 17.95042 -6.04399 -1.075 -0.299 1.046 -11.94287 11.88890 -16.55076 0.782 -0.737 -0.251 -27.89445 7.92135 -5.39941 -1.509 1.396 -0.091 -18.21836 -12.21214 -3.27337 -0.755 0.071 0.111 -16.79972 10.93034 3.30798 0.169 1.190 0.048 -2.51790 9.30736 -1.23707 -1.911 -1.949 0.574 16.87172 19.37752 -1.64482 2.007 1.928 -1.649 2.73404 16.28204 7.41806 1.009 0.245 -0.176 -12.70389 2.22699 12.78981 -0.826 -0.121 0.251 5.10806 7.18225 4.07604 -0.933 -0.037 1.009 17.19117 8.24954 9.31576 1.235 -0.417 0.112 9.98071 9.20898 15.07859 0.942 -0.382 -0.034 -0.58233 4.63228 14.38338 0.280 -0.084 0.829 3.34847 -0.01534 -6.49336 -1.471 -0.779 1.581 8.47047 4.67323 -8.79183 -1.322 0.671 0.039 15.22605 -4.25354 1.79615 1.261 0.396 -0.325 3.38597 -1.97173 11.82665 0.090 0.426 2.205 12.40610 -15.24168 1.55715 1.008 -0.643 -1.100 5.91099 -0.65056 19.67454 -2.262 -1.109 1.014 22.56014 4.44307 10.38251 2.929 1.845 -1.062 10.84308 -6.61240 21.73257 -0.858 0.185 2.805 28.56016 -2.44939 16.35754 0.737 6.019 -4.508 20.34540 -11.84756 23.85213 1.734 0.895 1.367 21.09157 -6.32738 7.11813 2.079 1.201 -1.367 
-0.30537 -6.42186 -9.74594 -1.231 0.382 4.709 -1.91461 -14.99799 -19.94853 -1.465 1.269 -3.362 -1.17253 -20.67930 -4.83469 -2.344 -0.292 -3.081 0.17828 -14.95967 5.49517 0.375 -0.586 0.875 -11.50890 -5.23213 -11.09206 -1.682 -1.924 1.499 -11.26257 1.11782 -14.57900 0.817 0.930 0.269 -15.37324 -8.78170 -17.19824 -1.727 -0.041 -1.535 -15.21194 -16.27627 -12.96131 -1.603 0.278 -1.235 -7.90942 -17.39415 3.62500 -0.770 -2.293 1.062 -17.58139 6.61919 -15.77542 2.335 -3.588 3.838 -28.84114 -4.62007 -16.53626 -1.466 -2.897 0.045 -24.50752 13.25799 -13.71043 -3.419 -5.600 2.194 -18.65769 17.52979 -18.63014 4.171 -3.849 -1.090 -19.20532 17.88622 -6.06035 -1.930 -0.683 1.877 -12.05375 11.84841 -16.55626 1.644 -1.495 -0.799 -27.98544 7.91750 -5.39341 -2.845 2.612 -0.115 -18.26722 -12.27384 -3.40486 -1.353 0.078 0.206 -16.78701 10.83335 3.31297 0.376 2.176 0.058 -2.35486 9.18880 -1.31386 -3.483 -3.504 1.078 17.15035 19.17117 -1.78295 4.048 3.360 -2.974 2.87434 16.19120 7.36053 1.733 0.290 -0.300 -12.62596 2.12220 12.74492 -1.420 -0.277 0.449 5.27755 7.02585 4.01037 -1.905 0.115 1.884 17.36468 8.22373 9.17363 2.308 -0.605 0.254 10.12397 9.17974 14.98509 1.924 -0.466 -0.093 -0.48141 4.58419 14.33202 0.572 -0.022 1.586 3.37357 -0.04389 -6.49947 -2.501 -1.428 2.841 8.60239 4.48754 -8.77926 -2.177 1.298 0.090 15.34220 -4.35434 1.85514 2.256 0.791 -0.506 3.44314 -2.02958 11.80142 0.243 0.878 3.991 12.44884 -15.27134 1.64770 1.803 -1.115 -1.937 5.93559 -0.54847 19.63650 -4.320 -2.008 1.787 22.63458 4.49092 10.46879 5.365 3.278 -2.030 10.90145 -6.51753 21.88374 -1.789 0.437 5.182 28.41592 -1.85726 17.15353 1.289 11.319 -7.219 20.38068 -11.71145 24.22861 3.130 1.820 2.379 21.20244 -6.28007 7.38915 3.825 2.099 -2.517 
-0.33409 -6.34933 -9.83500 -1.559 0.214 6.580 -1.94082 -14.89600 -20.12699 -1.958 1.391 -4.112 -1.17408 -20.69405 -4.98430 -3.109 -0.357 -4.088 0.18717 -15.00215 5.40367 0.450 -0.734 1.203 -11.61086 -5.16546 -11.14448 -2.239 -2.695 1.982 -11.39132 1.16185 -14.59297 1.264 1.103 0.385 -15.45059 -8.67244 -17.31095 -2.457 -0.127 -1.870 -15.23015 -16.25412 -13.16172 -2.190 0.270 -1.549 -7.91441 -17.43191 3.49779 -1.043 -3.040 1.387 -17.85203 6.67788 -15.72390 3.397 -4.963 5.170 -29.01883 -4.55935 -16.42676 -1.885 -3.785 -0.052 -24.58747 13.28143 -13.64253 -4.211 -6.964 2.666 -18.77666 17.57403 -18.53571 4.662 -5.060 -1.253 -19.21387 17.86593 -6.06603 -2.410 -1.230 2.269 -12.14982 11.85106 -16.54493 2.612 -2.265 -1.830 -28.02707 7.92101 -5.35045 -3.893 3.493 -0.152 -18.26689 -12.30865 -3.50053 -1.695 -0.049 0.275 -16.74261 10.77874 3.32400 0.631 2.828 -0.024 -2.22343 9.07693 -1.44383 -4.363 -4.483 1.470 17.33139 19.00108 -1.94534 5.992 4.051 -3.800 2.97493 16.13645 7.25510 1.969 -0.001 -0.317 -12.55250 2.05931 12.68383 -1.620 -0.467 0.559 5.39250 6.90834 3.95699 -2.963 0.549 2.530 17.42434 8.22824 9.08777 3.215 -0.468 0.322 10.19129 9.16717 14.89517 2.960 -0.054 -0.171 -0.41477 4.55109 14.25940 0.861 0.280 2.225 3.43861 -0.11198 -6.52911 -2.835 -1.715 3.516 8.73470 4.32842 -8.76240 -2.305 1.810 0.115 15.41958 -4.42930 1.91326 2.775 1.239 -0.452 3.48818 -2.08519 11.76703 0.428 1.420 5.191 12.48764 -15.30514 1.72112 2.258 -1.220 -2.318 5.89001 -0.47307 19.64159 -5.946 -2.524 2.182 22.63682 4.54064 10.57262 6.805 4.264 -2.676 10.89836 -6.44917 22.01618 -2.597 0.724 6.717 28.28823 -1.46772 17.69179 1.537 14.617 -8.347 20.38655 -11.60758 24.52174 4.017 2.609 2.891 21.25535 -6.23760 7.61024 4.912 2.734 -3.193 
-0.30705 -6.36949 -9.91228 -1.615 -0.105 7.919 -1.95112 -14.87804 -20.22844 -2.179 0.953 -4.046 -1.13603 -20.73842 -5.07707 -3.489 -0.446 -4.550 0.23598 -15.04213 5.32926 0.440 -0.753 1.432 -11.62686 -5.11476 -11.16819 -2.531 -3.227 2.253 -11.42280 1.21670 -14.57860 1.872 1.087 0.456 -15.47347 -8.61110 -17.35892 -3.130 -0.163 -1.848 -15.21642 -16.23836 -13.25202 -2.551 0.110 -1.610 -7.86563 -17.44888 3.41649 -1.179 -3.382 1.562 -18.00033 6.74392 -15.65370 4.323 -5.949 6.073 -29.09007 -4.52737 -16.28692 -1.989 -4.193 -0.228 -24.70307 13.32770 -13.53897 -3.961 -7.145 2.507 -18.95521 17.62730 -18.39790 3.801 -5.433 -1.018 -19.23421 17.89640 -6.05737 -2.436 -1.960 2.090 -12.22369 11.90258 -16.51347 3.626 -3.001 -3.367 -28.00752 7.93001 -5.26636 -4.586 3.958 -0.273 -18.20783 -12.31120 -3.54992 -1.759 -0.379 0.292 -16.66270 10.77377 3.34230 0.940 3.118 -0.233 -2.13483 8.98087 -1.62861 -4.424 -4.852 1.705 17.39202 18.88379 -2.12836 7.639 3.940 -4.050 3.02568 16.12782 7.10011 1.763 -0.612 -0.225 -12.48666 2.04909 12.60716 -1.380 -0.691 0.573 5.43985 6.84324 3.91837 -4.121 1.269 2.890 17.35264 8.26782 9.06836 4.148 -0.226 0.077 10.16924 9.17683 14.81206 3.997 0.912 -0.239 -0.39033 4.54011 14.16467 1.118 0.848 2.722 3.54629 -0.22026 -6.58583 -2.399 -1.530 3.514 8.86045 4.20937 -8.74351 -1.641 2.171 0.104 15.44696 -4.46971 1.96569 2.731 1.756 -0.159 3.51646 -2.13297 11.72215 0.609 2.092 5.789 12.51692 -15.34062 1.77001 2.312 -0.852 -2.158 5.76510 -0.43158 19.69345 -6.996 -2.572 2.173 22.55402 4.58865 10.68960 7.025 4.852 -2.887 10.81956 -6.41436 22.11910 -3.119 1.011 7.212 28.17770 -1.33618 17.90945 1.585 15.275 -8.363 20.35067 -11.54707 24.70570 4.327 3.168 2.954 21.23339 -6.20386 7.76261 5.172 3.187 -3.283 
-0.22651 -6.47703 -9.97121 -1.392 -0.463 8.601 -1.93951 -14.94494 -20.24345 -2.081 0.045 -3.237 -1.06115 -20.80571 -5.10383 -3.444 -0.570 -4.425 0.31969 -15.07373 5.27808 0.384 -0.666 1.582 -11.55536 -5.08599 -11.16342 -2.553 -3.491 2.343 -11.35430 1.27525 -14.53989 2.706 0.964 0.445 -15.43692 -8.60515 -17.34015 -3.808 -0.034 -1.519 -15.16862 -16.23238 -13.22539 -2.668 -0.163 -1.490 -7.76716 -17.44389 3.38814 -1.150 -3.314 1.599 -18.01934 6.81334 -15.56997 5.094 -6.558 6.609 -29.04716 -4.53065 -16.13209 -1.817 -4.180 -0.510 -24.84201 13.38962 -13.40413 -2.880 -6.306 1.706 -19.17694 17.68404 -18.22204 1.698 -5.080 -0.353 -19.26268 17.97077 -6.03260 -2.017 -2.813 1.341 -12.26875 11.99441 -16.46337 4.561 -3.620 -5.252 -27.92746 7.93812 -5.14989 -4.904 4.019 -0.514 -18.09463 -12.28350 -3.54998 -1.573 -0.913 0.239 -16.55450 10.81320 3.36734 1.263 3.138 -0.591 -2.09512 8.91384 -1.84799 -3.863 -4.734 1.720 17.33418 18.83281 -2.31459 8.786 3.181 -3.757 3.02574 16.16754 6.91326 1.797 -1.191 -0.168 -12.43229 2.09261 12.52301 -0.798 -0.954 0.516 5.42001 6.83770 3.89398 -5.315 2.179 2.953 17.16759 8.33767 9.10964 5.286 -0.187 -0.618 10.06679 9.21127 14.74032 4.897 2.299 -0.252 -0.40738 4.55737 14.05578 1.309 1.617 3.062 3.68412 -0.35282 -6.66550 -1.354 -0.956 3.028 8.96708 4.14290 -8.72820 -0.340 2.406 0.077 15.42121 -4.47135 2.00454 2.222 2.292 0.261 3.52497 -2.16400 11.66867 0.769 2.885 5.897 12.52848 -15.37169 1.78883 1.981 -0.034 -1.510 5.57538 -0.42542 19.78030 -7.443 -2.177 1.866 22.39497 4.62780 10.80451 6.162 5.083 -2.708 10.66701 -6.41425 22.18156 -3.310 1.278 6.755 28.07971 -1.47356 17.80522 1.496 13.349 -7.359 20.26463 -11.53597 24.77022 4.093 3.530 2.879 21.13211 -6.18372 7.83435 4.645 3.500 -2.858 
